# Alias OBJ Model File
# Exported from SketchUp, (c) 2000-2006 Google, Inc.
# File units = inches

mtllib table.mtl

g Mesh1 Group1 Table_Dining___B_B_Athos_2001_1 Table_Dining___B_B_Italia_Athos_2001_1 Model

usemtl _LightGray_1
v -7.15039 24.8031 11.2346
vt 39.3701 24.8031
vn -0.333333 -0.666667 0.666667
v -7.15039 25.5906 10.4472
vt 38.5827 25.5906
vn -1 0 1.47931e-16
v -7.15039 24.8031 10.4472
vt 38.5827 24.8031
vn -0.447214 -0.894427 6.6157e-17
f 1/1/1 2/2/2 3/3/3

v -7.15039 25.5906 11.2346
vt 39.3701 25.5906
vn -0.447214 0 0.894427
f 2/2/2 1/1/1 4/4/4

vt -12.9921 25.5906
v -7.93779 24.8031 11.2346
vt -13.7795 24.8031
vn 1.47931e-16 0 1
vt -12.9921 24.8031
f 4/5/4 5/6/5 1/7/1

v -7.93779 25.5906 11.2346
vt -13.7795 25.5906
f 5/6/5 4/5/4 6/8/5

vt 12.9921 39.3701
vn 0 1 -0
v -7.93779 25.5906 -27.3481
vt 13.7795 0.787402
vt 13.7795 39.3701
f 4/9/6 7/10/6 6/11/6

vt 12.9921 38.5827
f 2/12/6 7/10/6 4/9/6

v -7.15039 25.5906 -27.3481
vt 12.9921 0.787402
f 7/10/6 2/12/6 8/13/6

vt -38.5827 24.8031
vn 1 -2.70717e-14 4.16062e-16
vt -0.787402 25.5906
vt -38.5827 25.5906
f 3/14/7 8/15/7 2/16/7

v -7.15039 24.8031 -27.3481
vt -0.787402 24.8031
f 8/15/7 3/14/7 9/17/7

vt -12.9921 38.5827
vt -13.7795 39.3701
vn 0 -1 0
vt -12.9921 0.787402
vn -0.316228 -0.948683 -8.51404e-15
f 3/18/3 5/19/8 9/20/9

vt -12.9921 39.3701
f 5/19/8 3/18/3 1/21/1

v 5.05434 24.8031 10.4472
vt -0.787402 38.5827
f 10/22/8 1/21/1 3/18/3

v 5.05434 24.8031 11.2346
vt -0.787402 39.3701
f 1/21/1 10/22/8 11/23/8

v 5.84174 24.8031 10.4472
vt 0 38.5827
vn -1.32314e-16 -0.447214 -0.894427
vn 1.32314e-16 -0.447214 0.894427
f 12/24/10 11/23/11 10/22/10

v 5.84174 24.8031 11.2346
vt 0 39.3701
f 11/23/11 12/24/10 13/25/11

vt -39.3701 24.8031
vn 1 0 -1.47931e-16
v 5.84174 0.787402 10.4472
vt -38.5827 0.787402
vn 0.83205 0 -0.5547
vt -38.5827 24.8031
f 13/26/12 14/27/13 12/28/12

v 5.84174 0.787402 11.2346
vt -39.3701 0.787402
vn 0.666667 -0.333333 0.666667
f 14/27/13 13/26/12 15/29/14

vt 0 24.8031
v 5.05434 0.787402 11.2346
vt -0.787402 0.787402
vn -0.666667 -0.333333 0.666667
vt 0 0.787402
f 13/30/11 16/31/15 15/32/14

vt -0.787402 24.8031
f 16/31/15 13/30/11 11/33/11

v 5.84174 25.5906 11.2346
vt 0 25.5906
f 17/34/5 11/33/11 13/30/11

f 11/33/11 17/34/5 1/7/1

f 1/7/1 17/34/5 4/5/4

f 17/25/6 2/12/6 4/9/6

v 5.84174 25.5906 10.4472
f 2/12/6 17/25/6 18/24/6

vt -39.3701 25.5906
vt -38.5827 25.5906
f 17/35/12 12/28/12 18/36/12

f 12/28/12 17/35/12 13/26/12

vt 12.9921 25.5906
vn -1.47931e-16 0 -1
f 12/30/10 2/37/16 18/34/16

vt 0.787402 24.8031
f 10/38/10 2/37/16 12/30/10

vt 12.9921 24.8031
f 2/37/16 10/38/10 3/39/16

f 14/32/13 10/38/10 12/30/10

v 5.05434 0.787402 10.4472
vt 0.787402 0.787402
vn -0.83205 0 -0.5547
f 10/38/10 14/32/13 19/40/17

v 5.84174 1.44329e-15 10.4472
vt 0 0
vn 0.666667 -0.666667 -0.333333
f 20/41/18 19/40/17 14/32/13

v 5.05434 1.44329e-15 10.4472
vt 0.787402 0
vn -0.666667 -0.666667 -0.333333
f 19/40/17 20/41/18 21/42/19

v 5.84174 5.10703e-15 -27.3481
vt -1.01097e-46 0.787402
vn -2.0967e-32 -1 -4.84682e-17
f 21/22/19 22/43/20 20/24/18

v 5.05434 5.10703e-15 -27.3481
f 22/43/20 21/22/19 23/31/20

vt 38.5827 0
v 5.05434 0.787402 -27.3481
vt 0.787402 0.787402
vt 0.787402 3.66374e-15
f 21/44/19 24/45/2 23/46/2

vt 38.5827 0.787402
f 24/45/2 21/44/19 19/47/17

v 5.05434 1.44329e-15 11.2346
vt 39.3701 0
f 25/48/2 19/47/17 21/44/19

vt 39.3701 0.787402
f 19/47/17 25/48/2 16/49/15

vt -0.787402 0
f 25/50/5 15/32/14 16/31/15

v 5.84174 1.44329e-15 11.2346
f 15/32/14 25/50/5 26/41/5

f 25/23/8 20/24/18 26/25/8

f 20/24/18 25/23/8 21/22/19

vt -38.5827 0
vt -39.3701 0
f 20/51/18 15/29/14 26/52/12

f 15/29/14 20/51/18 14/27/13

vt -0.787402 3.66374e-15
f 22/53/12 14/27/13 20/51/18

v 5.84174 0.787402 -27.3481
vt -0.787402 0.787402
vn 0.948683 0 0.316228
f 14/27/13 22/53/12 27/54/21

v 5.84174 5.10703e-15 -28.1355
vt 0 3.66374e-15
f 28/55/12 27/54/21 22/53/12

v 5.84174 0.787402 -28.1355
vt 0 0.787402
vn 0.666667 -0.333333 -0.666667
f 27/54/21 28/55/12 29/56/22

v 5.05434 0.787402 -28.1355
vt 0.787402 0.787402
vn -0.666667 -0.333333 -0.666667
f 28/55/16 30/57/23 29/56/22

v 5.05434 5.10703e-15 -28.1355
vt 0.787402 3.66374e-15
f 30/57/23 28/55/16 31/58/16

f 28/41/8 23/31/20 31/50/8

f 23/31/20 28/41/8 22/32/20

f 23/46/2 30/56/23 31/55/2

vn -0.894427 0 0.447214
f 30/56/23 23/46/2 24/45/24

v 5.05434 24.8031 -28.1355
f 24/45/24 32/30/2 30/56/23

v 5.05434 24.8031 -27.3481
vt 0.787402 24.8031
f 32/30/2 24/45/24 33/59/2

vt -0.787402 0.787402
v 5.84174 24.8031 -27.3481
vn 6.88386e-17 -0.447214 0.894427
f 24/60/24 34/30/25 33/33/25

f 34/30/25 24/60/24 27/56/21

f 24/31/24 29/41/22 27/32/21

f 29/41/22 24/31/24 30/50/23

f 32/38/10 29/56/22 30/57/23

v 5.84174 24.8031 -28.1355
f 29/56/22 32/38/10 35/30/10

f 35/41/10 33/31/25 32/50/10

f 33/31/25 35/41/10 34/32/25

vt -0.787402 24.8031
f 34/61/12 29/56/22 35/30/12

f 29/56/22 34/61/12 27/54/21

v 5.84174 25.5906 -27.3481
vt -0.787402 25.5906
f 35/30/12 36/62/12 34/61/12

v 5.84174 25.5906 -28.1355
f 36/62/12 35/30/12 37/34/12

v -7.15039 25.5906 -28.1355
vt 12.9921 25.5906
vn -0.447214 1.21068e-14 -0.894427
f 35/30/10 38/63/26 37/34/16

f 32/38/10 38/63/26 35/30/10

v -7.15039 24.8031 -28.1355
vt 12.9921 24.8031
vn -0.333333 -0.666667 -0.666667
f 38/63/26 32/38/10 39/64/27

vt -12.9921 0
f 32/50/8 9/20/9 39/65/27

f 9/20/9 32/50/8 33/31/8

vt -0.787402 24.8031
vt 1.1176e-16 25.5906
vn 5.99636e-18 -1.70599e-15 1
f 33/66/25 36/67/28 9/7/28

vt 1.1176e-16 24.8031
f 36/67/28 33/66/25 34/68/25

vt -12.9921 25.5906
f 9/7/28 36/67/28 8/69/28

vt 12.9921 0
f 36/32/6 38/70/6 8/13/6

f 38/70/6 36/32/6 37/41/6

v -7.93779 25.5906 -28.1355
vt 13.7795 0
f 40/71/6 8/13/6 38/70/6

f 8/13/6 40/71/6 7/10/6

vt 2.4869e-13 25.5906
vn -1 -1.17217e-32 -1.78999e-14
v -7.93779 24.8031 -27.3481
vt 0.787402 24.8031
vn -1 -5.86084e-33 -8.87596e-15
vt 0.787402 25.5906
f 40/72/29 41/73/30 7/74/30

v -7.93779 24.8031 -28.1355
vt 2.4869e-13 24.8031
f 41/73/30 40/72/29 42/75/29

vt 13.7795 25.5906
vt 13.7795 24.8031
f 40/76/16 39/64/27 42/77/16

f 39/64/27 40/76/16 38/63/26

vt 0.787402 24.8031
vt 3.51719e-13 25.5906
vt 3.51719e-13 24.8031
f 9/78/9 38/79/26 39/80/27

vt 0.787402 25.5906
vn -1 2.70717e-14 -2.69237e-14
f 38/79/26 9/78/9 8/81/31

vt -13.7795 0
f 9/20/9 42/82/8 39/65/27

vt -13.7795 0.787402
f 42/82/8 9/20/9 41/83/8

f 9/20/9 5/19/8 41/83/8

vt 0.787402 25.5906
vt 0.787402 24.8031
f 5/1/2 7/84/30 41/85/30

f 7/84/30 5/1/2 6/4/2

vt 0.787402 0.787402
vt -5.94735e-32 38.5827
vt -5.94735e-32 0.787402
f 24/86/24 14/87/13 27/88/21

vt 0.787402 38.5827
f 14/87/13 24/86/24 19/89/17

f 14/24/13 16/23/15 19/22/17

f 16/23/15 14/24/13 15/25/14

f 16/49/15 10/3/2 19/47/17

f 10/3/2 16/49/15 11/1/2

g Mesh2 Group2 Table_Dining___B_B_Athos_2001_1 Table_Dining___B_B_Italia_Athos_2001_1 Model

v 89.7 24.8031 -28.1355
vn 0.333333 -0.666667 -0.666667
v 89.7 25.5906 -27.3481
vn 1 0 -0
v 89.7 24.8031 -27.3481
vn 0.447214 -0.894427 -0
f 43/1/32 44/2/33 45/3/34

v 89.7 25.5906 -28.1355
vn 0.447214 0 -0.894427
f 44/2/33 43/1/32 46/4/35

v 90.4874 24.8031 -28.1355
vn 0 0 -1
f 46/5/35 47/6/36 43/7/32

v 90.4874 25.5906 -28.1355
f 47/6/36 46/5/35 48/8/36

v 90.4874 25.5906 10.4472
f 46/9/6 49/10/6 48/11/6

f 44/12/6 49/10/6 46/9/6

v 89.7 25.5906 10.4472
f 49/10/6 44/12/6 50/13/6

vn -1 -2.70717e-14 -5.63993e-16
f 45/14/37 50/15/37 44/16/37

v 89.7 24.8031 10.4472
f 50/15/37 45/14/37 51/17/37

vn 0 -1 -0
vn 0.316228 -0.948683 8.56082e-15
f 45/18/34 47/19/38 51/20/39

f 47/19/38 45/18/34 43/21/32

v 77.4953 24.8031 -27.3481
f 52/22/38 43/21/32 45/18/34

v 77.4953 24.8031 -28.1355
f 43/21/32 52/22/38 53/23/38

v 76.7079 24.8031 -27.3481
vn 0 -0.447214 0.894427
vn 0 -0.447214 -0.894427
f 54/24/40 53/23/41 52/22/40

v 76.7079 24.8031 -28.1355
f 53/23/41 54/24/40 55/25/41

vn -1 0 -0
v 76.7079 0.787402 -27.3481
vn -0.83205 0 0.5547
f 55/26/42 56/27/43 54/28/42

v 76.7079 0.787402 -28.1355
vn -0.666667 -0.333333 -0.666667
f 56/27/43 55/26/42 57/29/44

v 77.4953 0.787402 -28.1355
vn 0.666667 -0.333333 -0.666667
f 55/30/41 58/31/45 57/32/44

f 58/31/45 55/30/41 53/33/41

v 76.7079 25.5906 -28.1355
f 59/34/36 53/33/41 55/30/41

f 53/33/41 59/34/36 43/7/32

f 43/7/32 59/34/36 46/5/35

f 59/25/6 44/12/6 46/9/6

v 76.7079 25.5906 -27.3481
f 44/12/6 59/25/6 60/24/6

f 59/35/42 54/28/42 60/36/42

f 54/28/42 59/35/42 55/26/42

vn 0 0 1
f 54/30/40 44/37/46 60/34/46

f 52/38/40 44/37/46 54/30/40

f 44/37/46 52/38/40 45/39/46

f 56/32/43 52/38/40 54/30/40

v 77.4953 0.787402 -27.3481
vn 0.83205 0 0.5547
f 52/38/40 56/32/43 61/40/47

v 76.7079 0 -27.3481
vn -0.666667 -0.666667 0.333333
f 62/41/48 61/40/47 56/32/43

v 77.4953 0 -27.3481
vn 0.666667 -0.666667 0.333333
f 61/40/47 62/41/48 63/42/49

v 76.7079 3.66374e-15 10.4472
vn 1.3797e-32 -1 4.84682e-17
f 63/22/49 64/43/50 62/24/48

v 77.4953 3.66374e-15 10.4472
f 64/43/50 63/22/49 65/31/50

v 77.4953 0.787402 10.4472
f 63/44/49 66/45/33 65/46/33

f 66/45/33 63/44/49 61/47/47

v 77.4953 0 -28.1355
f 67/48/33 61/47/47 63/44/49

f 61/47/47 67/48/33 58/49/45

f 67/50/36 57/32/44 58/31/45

v 76.7079 0 -28.1355
f 57/32/44 67/50/36 68/41/36

f 67/23/38 62/24/48 68/25/38

f 62/24/48 67/23/38 63/22/49

f 62/51/48 57/29/44 68/52/42

f 57/29/44 62/51/48 56/27/43

f 64/53/42 56/27/43 62/51/48

v 76.7079 0.787402 10.4472
vn -0.948683 0 -0.316228
f 56/27/43 64/53/42 69/54/51

v 76.7079 3.66374e-15 11.2346
f 70/55/42 69/54/51 64/53/42

v 76.7079 0.787402 11.2346
vn -0.666667 -0.333333 0.666667
f 69/54/51 70/55/42 71/56/52

v 77.4953 0.787402 11.2346
vn 0.666667 -0.333333 0.666667
f 70/55/46 72/57/53 71/56/52

v 77.4953 3.66374e-15 11.2346
f 72/57/53 70/55/46 73/58/46

f 70/41/38 65/31/50 73/50/38

f 65/31/50 70/41/38 64/32/50

f 65/46/33 72/56/53 73/55/33

vn 0.894427 0 -0.447214
f 72/56/53 65/46/33 66/45/54

v 77.4953 24.8031 11.2346
f 66/45/54 74/30/33 72/56/53

v 77.4953 24.8031 10.4472
f 74/30/33 66/45/54 75/59/33

v 76.7079 24.8031 10.4472
vn 6.34753e-17 -0.447214 -0.894427
f 66/60/54 76/30/55 75/33/55

f 76/30/55 66/60/54 69/56/51

f 66/31/54 71/41/52 69/32/51

f 71/41/52 66/31/54 72/50/53

f 74/38/40 71/56/52 72/57/53

v 76.7079 24.8031 11.2346
f 71/56/52 74/38/40 77/30/40

f 77/41/40 75/31/55 74/50/40

f 75/31/55 77/41/40 76/32/55

f 76/61/42 71/56/52 77/30/42

f 71/56/52 76/61/42 69/54/51

v 76.7079 25.5906 10.4472
f 77/30/42 78/62/42 76/61/42

v 76.7079 25.5906 11.2346
f 78/62/42 77/30/42 79/34/42

v 89.7 25.5906 11.2346
vn 0.447214 1.21068e-14 0.894427
f 77/30/40 80/63/56 79/34/46

f 74/38/40 80/63/56 77/30/40

v 89.7 24.8031 11.2346
vn 0.333333 -0.666667 0.666667
f 80/63/56 74/38/40 81/64/57

f 74/50/38 51/20/39 81/65/57

f 51/20/39 74/50/38 75/31/38

vn 1.41935e-16 -1.70599e-15 -1
f 75/66/55 78/67/58 51/7/58

f 78/67/58 75/66/55 76/68/55

f 51/7/58 78/67/58 50/69/58

f 78/32/6 80/70/6 50/13/6

f 80/70/6 78/32/6 79/41/6

v 90.4874 25.5906 11.2346
f 82/71/6 50/13/6 80/70/6

f 50/13/6 82/71/6 49/10/6

vn 1 -1.17217e-32 1.80478e-14
v 90.4874 24.8031 10.4472
vn 1 -5.86084e-33 9.02389e-15
f 82/72/59 83/73/60 49/74/60

v 90.4874 24.8031 11.2346
f 83/73/60 82/72/59 84/75/59

f 82/76/46 81/64/57 84/77/46

f 81/64/57 82/76/46 80/63/56

f 51/78/39 80/79/56 81/80/57

vn 1 2.70717e-14 2.70717e-14
f 80/79/56 51/78/39 50/81/61

f 51/20/39 84/82/38 81/65/57

f 84/82/38 51/20/39 83/83/38

f 51/20/39 47/19/38 83/83/38

f 47/1/33 49/84/60 83/85/60

f 49/84/60 47/1/33 48/4/33

f 66/86/54 56/87/43 69/88/51

f 56/87/43 66/86/54 61/89/47

f 56/24/43 58/23/45 61/22/47

f 58/23/45 56/24/43 57/25/44

f 58/49/45 52/3/33 61/47/47

f 52/3/33 58/49/45 53/1/33

g Mesh3 Group3 Table_Dining___B_B_Athos_2001_1 Table_Dining___B_B_Italia_Athos_2001_1 Model

usemtl Material1
v 5.84174 25.5906 -28.1355
vt -13.7795 39.3701
v -7.93779 25.5906 11.2346
v -7.93779 25.5906 -28.1355
f 85/90/38 86/41/38 87/25/38

v 5.84174 25.5906 11.2346
vt -13.7795 0
f 86/41/38 85/90/38 88/91/38

vt -39.3701 0.787402
vn -1 0 -9.02389e-17
v 5.84174 24.8031 11.2346
vt -1.24345e-15 0
vt -1.24345e-15 0.787402
f 85/92/62 89/93/62 88/94/62

v 5.84174 24.8031 -28.1355
f 89/93/62 85/92/62 90/52/62

vt -13.7795 0.787402
vt -84.6457 0
vt -13.7795 0
f 85/95/36 55/96/36 90/97/36

vt -84.6457 0.787402
f 55/96/36 85/95/36 59/98/36

v -7.93779 27.9528 -28.1355
vt 0 3.14961
f 85/95/36 91/99/36 59/98/36

vt 0 0.787402
f 91/99/36 85/95/36 87/100/36

vt -39.3701 3.14961
f 86/100/42 91/101/42 87/92/42

v -7.93779 27.9528 11.2346
f 91/101/42 86/100/42 92/99/42

v 90.4874 27.9528 11.2346
vt 98.4252 3.14961
f 86/100/46 93/102/46 92/99/46

vt 13.7795 0.787402
f 88/103/46 93/102/46 86/100/46

vt 84.6457 0.787402
f 79/104/46 93/102/46 88/103/46

vt 98.4252 0.787402
f 93/102/46 79/104/46 82/105/46

v 90.4874 25.5906 -28.1355
vt -98.4252 39.3701
vt -98.4252 0
f 79/96/38 94/106/38 82/107/38

vt -84.6457 39.3701
f 94/106/38 79/96/38 59/108/38

vt 39.3701 0.787402
f 79/100/33 55/48/33 59/109/33

f 55/48/33 79/100/33 77/41/33

vt 13.7795 0
vt 84.6457 0
f 79/104/46 89/110/46 77/111/46

f 89/110/46 79/104/46 88/103/46

f 90/90/38 77/96/38 89/91/38

f 77/96/38 90/90/38 55/108/38

vt -98.4252 0.787402
f 59/98/36 91/99/36 94/112/36

v 90.4874 27.9528 -28.1355
vt -98.4252 3.14961
f 94/112/36 91/99/36 95/113/36

vt 98.4252 0
vt 98.4252 39.3701
f 91/25/6 93/114/6 95/115/6

f 93/114/6 91/25/6 92/41/6

vt 39.3701 3.14961
f 93/99/33 94/109/33 95/116/33

f 94/109/33 93/99/33 82/100/33

g Mesh4 Table_Dining___B_B_Athos_2001_1 Table_Dining___B_B_Italia_Athos_2001_1 Model

usemtl _LightGray_1
v 76.7079 0.787402 -8.05673
vt 84.6457 19.2913
v 5.84174 0.787402 -8.84413
vt 13.7795 20.0787
v 5.84174 0.787402 -8.05673
vt 13.7795 19.2913
f 96/117/6 97/118/6 98/119/6

v 76.7079 0.787402 -8.84413
vt 84.6457 20.0787
f 97/118/6 96/117/6 99/120/6

vt 19.2913 0.787402
v 76.7079 1.6185e-15 -8.84413
vt 20.0787 1.6185e-15
vt 20.0787 0.787402
f 96/121/33 100/122/33 99/123/33

v 76.7079 1.87871e-15 -8.05673
vt 19.2913 1.87871e-15
f 100/122/33 96/121/33 101/124/33

vt 84.6457 0.787402
v 5.84174 1.87871e-15 -8.05673
vt 13.7795 1.87871e-15
vt 84.6457 1.87871e-15
f 96/125/46 102/126/46 101/127/46

vt 13.7795 0.787402
f 102/126/46 96/125/46 98/128/46

vt -20.0787 0.787402
vt -19.2913 1.87871e-15
vt -19.2913 0.787402
f 97/129/42 102/130/42 98/131/42

v 5.84174 1.6185e-15 -8.84413
vt -20.0787 1.6185e-15
f 102/130/42 97/129/42 103/132/42

vt -13.7795 0.787402
vt -84.6457 1.6185e-15
vt -13.7795 1.6185e-15
f 97/133/36 100/134/36 103/135/36

vt -84.6457 0.787402
f 100/134/36 97/133/36 99/136/36

vt -84.6457 20.0787
vn 0 -1 3.30465e-16
vt -13.7795 19.2913
vt -13.7795 20.0787
f 100/137/63 102/138/63 103/139/63

vt -84.6457 19.2913
f 102/138/63 100/137/63 101/140/63

